<svg height="512" viewBox="0 0 60 60" width="512" xmlns="http://www.w3.org/2000/svg"><g id="034---Braille" fill="none"><g id="Layer_3" transform="translate(1 1)"><path id="Shape" d="m35 48.22v7.78c0 1.1045695-.8954305 2-2 2h-24c-1.1045695 0-2-.8954305-2-2v-6.94z" fill="#cad9fc"/><path id="Shape" d="m32 48.22v7.78c.0512496 1.0442035-.7465267 1.9355735-1.79 2h-21.42c-1.04347334-.0644265-1.84124956-.9557965-1.79-2v-6.94z" fill="#e8edfc"/><path id="Shape" d="m40 21v18c0 6.0751322-4.9248678 11-11 11h-18c-4.97056275 0-9-4.0294373-9-9v-8c0-3.3137085 2.6862915-6 6-6h24v-6c0-2.209139 1.790861-4 4-4s4 1.790861 4 4z" fill="#cad9fc"/><g fill="#e8edfc"><path id="Shape" d="m37 21v18c0 6.0751322-4.9248678 11-11 11h-15c-4.97056275 0-9-4.0294373-9-9v-8c0-3.3137085 2.6862915-6 6-6h24v-6c.0032957-1.6269922.9917334-3.08988 2.5-3.7 1.5082666.61012 2.4967043 2.0730078 2.5 3.7z"/><circle id="Oval" cx="2" cy="2" r="2"/><circle id="Oval" cx="2" cy="10" r="2"/><circle id="Oval" cx="25" cy="2" r="2"/><circle id="Oval" cx="56" cy="2" r="2"/><circle id="Oval" cx="56" cy="10" r="2"/><circle id="Oval" cx="56" cy="18" r="2"/><circle id="Oval" cx="48" cy="18" r="2"/><circle id="Oval" cx="48" cy="2" r="2"/><circle id="Oval" cx="33" cy="10" r="2"/><path id="Shape" d="m16 39v-35c0-2.209139-1.790861-4-4-4s-4 1.790861-4 4v35z"/><path id="Shape" d="m32 28v-9c0-2.209139-1.790861-4-4-4s-4 1.790861-4 4v9z"/><path id="Shape" d="m24 28v-11c0-2.209139-1.790861-4-4-4s-4 1.790861-4 4v11z"/></g></g><path id="Shape" d="m8 56v-6.94c-3.06201595-1.5191852-4.99914246-4.6418331-5-8.06v-8c0-3.3137085 2.6862915-6 6-6v-23c.00329571-1.62699221.99173341-3.08988001 2.5-3.7-.4755996-.19703435-.9852025-.29895494-1.5-.3-2.209139 0-4 1.790861-4 4v23c-3.3137085 0-6 2.6862915-6 6v8c.00085754 3.4181669 1.93798405 6.5408148 5 8.06v6.94c-.05124956 1.0442035.74652666 1.9355735 1.79 2h3c-1.04347334-.0644265-1.84124956-.9557965-1.79-2z" fill="#fff" transform="translate(3 1)"/><path id="Rectangle-path" d="m8 5h2v8h-2z" fill="#fff"/><g fill="#428dff"><path id="Shape" d="m3 6c1.65685425 0 3-1.34314575 3-3s-1.34314575-3-3-3-3 1.34314575-3 3 1.34314575 3 3 3zm0-4c.55228475 0 1 .44771525 1 1s-.44771525 1-1 1-1-.44771525-1-1 .44771525-1 1-1z"/><path id="Shape" d="m6 11c0-1.65685425-1.34314575-3-3-3s-3 1.34314575-3 3c0 1.6568542 1.34314575 3 3 3s3-1.3431458 3-3zm-4 0c0-.5522847.44771525-1 1-1s1 .4477153 1 1-.44771525 1-1 1c-.26521649 0-.5195704-.1053568-.70710678-.2928932s-.29289322-.4418903-.29289322-.7071068z"/><path id="Shape" d="m29 3c0-1.65685425-1.3431458-3-3-3s-3 1.34314575-3 3 1.3431458 3 3 3 3-1.34314575 3-3zm-4 0c0-.55228475.4477153-1 1-1s1 .44771525 1 1-.4477153 1-1 1-1-.44771525-1-1z"/><path id="Shape" d="m57 0c-1.6568542 0-3 1.34314575-3 3s1.3431458 3 3 3 3-1.34314575 3-3c0-.79564947-.3160705-1.55871121-.8786797-2.12132034-.5626091-.56260914-1.3256708-.87867966-2.1213203-.87867966zm0 4c-.5522847 0-1-.44771525-1-1s.4477153-1 1-1 1 .44771525 1 1c0 .26521649-.1053568.5195704-.2928932.70710678s-.4418903.29289322-.7071068.29289322z"/><path id="Shape" d="m57 8c-1.6568542 0-3 1.34314575-3 3 0 1.6568542 1.3431458 3 3 3s3-1.3431458 3-3c0-1.65685425-1.3431458-3-3-3zm0 4c-.5522847 0-1-.4477153-1-1s.4477153-1 1-1 1 .4477153 1 1-.4477153 1-1 1z"/><path id="Shape" d="m57 16c-1.6568542 0-3 1.3431458-3 3s1.3431458 3 3 3 3-1.3431458 3-3-1.3431458-3-3-3zm0 4c-.5522847 0-1-.4477153-1-1s.4477153-1 1-1 1 .4477153 1 1-.4477153 1-1 1z"/><path id="Shape" d="m49 16c-1.6568542 0-3 1.3431458-3 3s1.3431458 3 3 3 3-1.3431458 3-3-1.3431458-3-3-3zm0 4c-.5522847 0-1-.4477153-1-1s.4477153-1 1-1 1 .4477153 1 1-.4477153 1-1 1z"/><path id="Shape" d="m49 0c-1.6568542 0-3 1.34314575-3 3s1.3431458 3 3 3 3-1.34314575 3-3c0-.79564947-.3160705-1.55871121-.8786797-2.12132034-.5626091-.56260914-1.3256708-.87867966-2.1213203-.87867966zm0 4c-.5522847 0-1-.44771525-1-1s.4477153-1 1-1 1 .44771525 1 1c0 .26521649-.1053568.5195704-.2928932.70710678s-.4418903.29289322-.7071068.29289322z"/><path id="Shape" d="m37 11c0-1.65685425-1.3431458-3-3-3s-3 1.34314575-3 3c0 1.6568542 1.3431458 3 3 3s3-1.3431458 3-3zm-4 0c0-.5522847.4477153-1 1-1s1 .4477153 1 1-.4477153 1-1 1-1-.4477153-1-1z"/><path id="Shape" d="m32 56c.5522847 0 1-.4477153 1-1s-.4477153-1-1-1h-1c-.5522847 0-1 .4477153-1 1s.4477153 1 1 1z"/><path id="Shape" d="m11 55c0 .5522847.4477153 1 1 1h15c.5522847 0 1-.4477153 1-1s-.4477153-1-1-1h-15c-.5522847 0-1 .4477153-1 1z"/><circle id="Oval" cx="9" cy="9" r="1"/><path id="Shape" d="m37 17c-1.2274975.007884-2.4092034.4670408-3.32 1.29-.5749171-1.5447781-1.8742373-2.7069654-3.4733162-3.1067351-1.5990789-.3997698-3.2924496.0142448-4.5266838 1.1067351-.7165653-1.9689231-2.5847521-3.2822424-4.68-3.29-1.0818511 0-2.1345191.3508894-3 1v-9c0-2.76142375-2.2385763-5-5-5s-5 2.23857625-5 5c0 .55228475.44771525 1 1 1s1-.44771525 1-1c0-1.65685425 1.3431458-3 3-3s3 1.34314575 3 3v22c0 .5522847.4477153 1 1 1s1-.4477153 1-1v-9c0-1.6568542 1.3431458-3 3-3s3 1.3431458 3 3v9c0 .5522847.4477153 1 1 1s1-.4477153 1-1v-7c0-1.6568542 1.3431458-3 3-3s3 1.3431458 3 3v7c0 .5522847.4477153 1 1 1s1-.4477153 1-1v-5c0-1.6568542 1.3431458-3 3-3s3 1.3431458 3 3v18c0 5.5228475-4.4771525 10-10 10-.5522847 0-1 .4477153-1 1s.4477153 1 1 1c1.7279398.0015079 3.4350181-.3774635 5-1.11v6.11c0 .5522847-.4477153 1-1 1h-24c-.55228475 0-1-.4477153-1-1v-5.46c.97077115.3050772 1.9824202.4601967 3 .46.5522847 0 1-.4477153 1-1s-.4477153-1-1-1c-4.418278 0-8-3.581722-8-8v-8c-.00048501-2.3763431 1.67166873-4.4247314 4-4.9v10.9c0 .5522847.44771525 1 1 1s1-.4477153 1-1v-27c0-.5522847-.44771525-1-1-1s-1 .4477153-1 1v14.08c-3.44092669.4966526-5.99592548 3.4434178-6 6.92v8c.00366074 3.5689919 1.9091596 6.865505 5 8.65v6.35c0 1.6568542 1.34314575 3 3 3h24c1.6568542 0 3-1.3431458 3-3v-7.27c3.134068-2.2508344 4.9945971-5.8714241 5-9.73v-18c0-2.7614237-2.2385763-5-5-5z"/></g></g></svg>